<svg width="30" height="34" viewBox="0 0 30 34" fill="none" xmlns="http://www.w3.org/2000/svg">
<path d="M11.1367 4.79477L14.8022 2.3021C15.4698 1.84804 16.3726 2.33167 16.3644 3.13908L16.3469 4.87706C16.3415 5.4121 16.7583 5.85658 17.2926 5.88565L22.6188 6.17549C23.4072 6.2184 23.8372 7.11526 23.377 7.75688L21.7612 10.0094C21.4253 10.4778 21.5538 11.1325 22.0419 11.4391L27.6341 14.952C28.3822 15.4219 28.198 16.5601 27.3399 16.7701L20.8573 18.357C20.3313 18.4857 20.0033 19.0099 20.1176 19.5393L20.9229 23.27C21.0639 23.9229 20.5373 24.5278 19.8711 24.4782L16.9972 24.2641C16.3851 24.2184 15.8767 24.73 15.9262 25.3419L16.363 30.7429C16.4379 31.6691 15.3193 32.1878 14.6608 31.5322L8.60358 25.503C8.13548 25.0371 7.35227 25.1449 7.02743 25.7199L5.24749 28.871C4.80922 29.6468 3.65164 29.5053 3.41325 28.6467L1.80291 22.8469" stroke="#FF5A5F" stroke-width="3" stroke-linecap="round"/>
</svg>
