<svg width="30" height="29" viewBox="0 0 30 29" fill="none" xmlns="http://www.w3.org/2000/svg">
<path d="M13.7598 26.3333L7.86168 27.513C6.97868 27.6896 6.33042 26.7005 6.84465 25.9613L10.1987 21.1398C10.5102 20.6921 10.4054 20.0774 9.9633 19.7581L1.66615 13.7657C0.845484 13.173 1.32404 11.876 2.333 11.9584L13.6597 12.883C14.3543 12.9397 14.8924 12.2864 14.7037 11.6156L12.7311 4.60172C12.4921 3.75209 13.3907 3.03206 14.1678 3.4505L19.8692 6.52045C20.3594 6.78441 20.9708 6.59718 21.2291 6.10399L23.5554 1.66289C23.9268 0.953836 24.9393 0.946793 25.3205 1.65062L28.7598 8" stroke="#FF5A5F" stroke-width="2" stroke-linecap="round"/>
</svg>
